<?xml version="1.0" encoding="iso-8859-1"?>
<!-- Uploaded to: SVG Repo, www.svgrepo.com, Generator: SVG Repo Mixer Tools -->
<svg height="800px" width="800px" version="1.1" id="Layer_1" xmlns="http://www.w3.org/2000/svg" xmlns:xlink="http://www.w3.org/1999/xlink" 
	 viewBox="0 0 512 512" xml:space="preserve">
<path style="fill:#FFFFFF;" d="M256,20C125.872,20,20,125.872,20,256s105.872,236,236,236s236-105.872,236-236S386.128,20,256,20z
	 M378.736,327.512h-0.36c0.184,1.528,0.36,3.24,0.36,4.864c0,24.128-24.576,43.664-54.92,43.664s-54.92-19.536-54.92-43.664
	s24.576-43.664,54.92-43.664c12.872,0,24.672,3.6,34.032,9.456V197.504l-139.456,21.968v132.976
	c0,24.128-24.576,43.664-54.92,43.664s-54.92-19.536-54.92-43.664s24.576-43.664,54.92-43.664c13.688,0,26.112,3.96,35.744,10.536
	V147.632l179.52-36.28L378.736,327.512L378.736,327.512z"/>
<path style="fill:#8AD5DD;" d="M256,0C114.616,0,0,114.616,0,256s114.616,256,256,256s256-114.616,256-256S397.384,0,256,0z
	 M256,492C125.872,492,20,386.128,20,256S125.872,20,256,20s236,105.872,236,236S386.128,492,256,492z"/>
<path style="fill:#DB2B42;" d="M199.216,319.32c-9.632-6.576-22.056-10.536-35.744-10.536c-30.344,0-54.92,19.536-54.92,43.664
	s24.576,43.664,54.92,43.664s54.92-19.536,54.92-43.664V219.472l139.456-21.968V298.16c-9.36-5.856-21.16-9.456-34.032-9.456
	c-30.344,0-54.92,19.536-54.92,43.664s24.576,43.664,54.92,43.664s54.92-19.536,54.92-43.664c0-1.624-0.184-3.328-0.36-4.864h0.36
	v-216.16l-179.52,36.28L199.216,319.32L199.216,319.32z"/>
</svg>